<?xml version="1.0" ?><!DOCTYPE svg  PUBLIC '-//W3C//DTD SVG 1.1//EN'  'http://www.w3.org/Graphics/SVG/1.1/DTD/svg11.dtd'><svg enable-background="new 0 0 512 512" height="512px" id="Calque_1" version="1.1" viewBox="0 0 512 512" width="512px" xml:space="preserve" xmlns="http://www.w3.org/2000/svg" xmlns:xlink="http://www.w3.org/1999/xlink"><g><path d="M58.042,202.433c-4.714,17.402-7.1,35.388-7.1,53.569c0,18.18,2.386,36.164,7.1,53.565l67.655-53.566   L58.042,202.433z" fill="#20ACC3"/><path d="M309.568,58.041c-17.402-4.713-35.387-7.1-53.567-7.1c-18.183,0-36.169,2.387-53.57,7.101l53.568,67.656   L309.568,58.041z" fill="#20ACC3"/><polygon fill="#20ACC3" points="235.327,131.81 187.496,71.4 157.854,131.81  "/><path d="M164.714,72.425c-34.735,17.389-64.126,44.612-84.245,77.741c-2.875,4.732-5.559,9.586-8.043,14.548   l61.91-30.378L164.714,72.425z" fill="#20ACC3"/><polygon fill="#20ACC3" points="131.808,157.855 71.397,187.498 131.808,235.33  "/><polygon fill="#20ACC3" points="276.671,131.81 354.144,131.81 324.503,71.4  "/><polygon fill="#20ACC3" points="151.808,360.19 231.859,360.19 151.808,280.139  "/><rect fill="#20ACC3" height="141.484" transform="matrix(0.7071 0.7071 -0.7071 0.7071 256.0022 -106.0403)" width="141.485" x="185.26" y="185.258"/><polygon fill="#20ACC3" points="360.191,151.81 280.141,151.81 360.191,231.86  "/><polygon fill="#20ACC3" points="151.808,151.81 151.808,231.86 231.858,151.81  "/><polygon fill="#20ACC3" points="360.191,280.139 280.14,360.19 360.191,360.19  "/><path d="M347.281,72.422l30.381,61.913l61.914,30.381C419.703,125.016,386.982,92.295,347.281,72.422z" fill="#20ACC3"/><path d="M453.959,309.569c4.713-17.399,7.099-35.383,7.099-53.565c0-18.182-2.387-36.169-7.1-53.572L386.3,256   L453.959,309.569z" fill="#20ACC3"/><polygon fill="#20ACC3" points="380.191,354.147 440.602,324.504 380.191,276.672  "/><polygon fill="#20ACC3" points="131.808,276.673 71.397,324.505 131.808,354.148  "/><path d="M347.281,439.578c1.29-0.646,2.571-1.307,3.847-1.979c37.968-20.03,69.223-51.907,88.45-90.318   l-61.916,30.383L347.281,439.578z" fill="#20ACC3"/><polygon fill="#20ACC3" points="380.191,235.327 440.602,187.498 380.191,157.855  "/><path d="M72.424,347.285c0.621,1.24,1.254,2.475,1.9,3.701c1.012,1.922,2.063,3.82,3.135,5.707   c4.254,7.488,8.972,14.696,14.117,21.579c3.848,5.146,7.935,10.109,12.238,14.876c0.695,0.77,1.394,1.537,2.101,2.297   c16.763,18.016,36.697,33.066,58.8,44.131l-30.378-61.911L72.424,347.285z" fill="#20ACC3"/><polygon fill="#20ACC3" points="276.671,380.19 324.503,440.601 354.145,380.19  "/><polygon fill="#20ACC3" points="157.854,380.19 187.496,440.601 235.327,380.19  "/><path d="M202.43,453.957c17.401,4.714,35.388,7.101,53.57,7.101c18.182,0,36.167-2.386,53.567-7.1l-53.569-67.657   L202.43,453.957z" fill="#20ACC3"/></g><g opacity="0.3"><path d="M66.819,256c0,14.66,1.551,29.19,4.62,43.39l-12.85,10.181c-4.72-17.4-7.101-35.391-7.101-53.57s2.381-36.16,7.101-53.57   l12.85,10.181C68.369,226.81,66.819,241.34,66.819,256z"/><path d="M218.309,58.04l45.9,57.97l-7.67,9.69l-53.56-67.66c17.4-4.71,35.38-7.1,53.57-7.1c2.561,0,5.121,0.05,7.67,0.149   C248.649,51.66,233.259,53.99,218.309,58.04z"/><polygon points="197.499,83.35 173.729,131.81 158.399,131.81 188.039,71.401  "/><path d="M165.259,72.42l-6.1,12.43c-25.4,16.83-46.98,39.25-62.811,65.32c-0.87,1.42-1.72,2.86-2.54,4.311c0,0-0.01,0-0.01,0.01   l-20.83,10.22c2.49-4.96,5.17-9.81,8.04-14.54C101.129,117.04,130.519,89.81,165.259,72.42z"/><polygon points="132.349,165.39 87.269,187.5 132.349,223.191 132.349,235.33 71.939,187.5 132.349,157.861  "/><polygon points="167.689,295.481 167.689,360.191 152.349,360.191 152.349,280.14  "/><polygon points="171.839,256 264.219,348.38 256.549,356.04 156.499,256 256.549,155.96 264.219,163.63  "/><polygon points="167.689,151.81 167.689,216.52 152.349,231.861 152.349,151.81  "/><polygon points="132.349,288.81 87.269,324.5 132.349,346.62 132.349,354.151 71.939,324.5 132.349,276.67  "/><path d="M165.259,439.58c-22.1-11.07-42.04-26.12-58.8-44.13c-0.71-0.76-1.4-1.53-2.101-2.3c-4.3-4.771-8.39-9.73-12.239-14.881   c-5.141-6.88-9.86-14.09-14.12-21.579c-1.07-1.881-2.12-3.78-3.13-5.7c-0.65-1.23-1.28-2.46-1.9-3.7l20.85,10.229   c4.12,7.19,8.681,14.12,13.63,20.75c3.851,5.15,7.94,10.11,12.24,14.881c0.7,0.77,1.4,1.54,2.101,2.3   c11.159,11.979,23.71,22.649,37.38,31.72L165.259,439.58z"/><polygon points="197.499,428.651 188.039,440.6 158.399,380.191 173.729,380.191  "/><path d="M264.219,460.91c-2.549,0.1-5.109,0.149-7.67,0.149c-18.19,0-36.169-2.39-53.57-7.1l53.56-67.66l7.67,9.69l-45.9,57.97   C233.259,458.01,248.649,460.34,264.219,460.91z"/></g><g opacity="0.3"><path d="M445.781,256c0,14.66-1.551,29.19-4.621,43.39l12.85,10.181c4.721-17.4,7.102-35.391,7.102-53.57   s-2.381-36.16-7.102-53.57l-12.85,10.181C444.23,226.81,445.781,241.34,445.781,256z" fill="#FFFFFF"/><path d="M294.291,58.04l-45.9,57.97l7.67,9.69l53.561-67.66c-17.4-4.71-35.381-7.1-53.57-7.1   c-2.561,0-5.121,0.05-7.67,0.149C263.951,51.66,279.34,53.99,294.291,58.04z" fill="#FFFFFF"/><polygon fill="#FFFFFF" points="315.099,83.35 338.871,131.81 354.201,131.81 324.56,71.401  "/><path d="M347.34,72.42l6.1,12.43c25.4,16.83,46.98,39.25,62.811,65.32c0.871,1.42,1.721,2.86,2.541,4.311   c0,0,0.01,0,0.01,0.01l20.83,10.22c-2.49-4.96-5.17-9.81-8.041-14.54C411.47,117.04,382.08,89.81,347.34,72.42z" fill="#FFFFFF"/><polygon fill="#FFFFFF" points="380.25,165.39 425.33,187.5 380.25,223.191 380.25,235.33 440.66,187.5 380.25,157.861  "/><polygon fill="#FFFFFF" points="344.91,295.481 344.91,360.191 360.25,360.191 360.25,280.14  "/><polygon fill="#FFFFFF" points="340.76,256 248.381,348.38 256.051,356.04 356.099,256 256.051,155.96 248.381,163.63  "/><polygon fill="#FFFFFF" points="344.91,151.81 344.91,216.52 360.25,231.861 360.25,151.81  "/><polygon fill="#FFFFFF" points="380.25,288.81 425.33,324.5 380.25,346.62 380.25,354.151 440.66,324.5 380.25,276.67  "/><path d="M347.34,439.58c22.1-11.07,42.041-26.12,58.801-44.13c0.709-0.76,1.4-1.53,2.1-2.3   c4.301-4.771,8.391-9.73,12.24-14.881c5.141-6.88,9.859-14.09,14.119-21.579c1.07-1.881,2.121-3.78,3.131-5.7   c0.65-1.23,1.279-2.46,1.9-3.7l-20.85,10.229c-4.121,7.19-8.682,14.12-13.631,20.75c-3.85,5.15-7.939,10.11-12.24,14.881   c-0.699,0.77-1.4,1.54-2.1,2.3c-11.16,11.979-23.711,22.649-37.381,31.72L347.34,439.58z" fill="#FFFFFF"/><polygon fill="#FFFFFF" points="315.099,428.651 324.56,440.6 354.201,380.191 338.871,380.191  "/><path d="M248.381,460.91c2.549,0.1,5.109,0.149,7.67,0.149c18.189,0,36.17-2.39,53.57-7.1L256.06,386.3l-7.67,9.69   l45.9,57.97C279.34,458.01,263.951,460.34,248.381,460.91z" fill="#FFFFFF"/></g><g><polygon fill="none" points="375.191,149.833 375.191,245.664 449.918,186.5  "/><polygon fill="none" points="266.335,136.811 362.168,136.811 325.501,62.085  "/><polygon fill="none" points="146.808,268.069 146.808,365.191 243.93,365.191  "/><polygon fill="none" points="136.808,362.171 136.808,266.338 62.081,325.504  "/><polygon fill="none" points="149.831,136.811 245.664,136.811 186.498,62.085  "/><polygon fill="none" points="136.808,245.667 136.808,149.833 62.081,186.5  "/><rect fill="none" height="151.487" transform="matrix(0.7071 -0.7071 0.7071 0.7071 -106.0378 256.0027)" width="151.487" x="180.26" y="180.257"/><path d="M456.685,193.896l-78.44,62.105l78.44,62.105c6.089-19.635,9.372-40.492,9.372-62.103   C466.058,234.391,462.773,213.531,456.685,193.896z" fill="none"/><polygon fill="none" points="146.808,146.811 146.808,243.932 243.929,146.811  "/><polygon fill="none" points="365.191,365.191 365.191,268.069 268.069,365.191  "/><polygon fill="none" points="365.191,243.932 365.191,146.811 268.07,146.811  "/><path d="M133.752,256.002l-78.437-62.104c-6.089,19.637-9.373,40.494-9.373,62.105c0,21.61,3.284,42.467,9.373,62.103   L133.752,256.002z" fill="none"/><path d="M255.999,378.246l-62.105,78.438c19.637,6.09,40.496,9.374,62.107,9.374s42.47-3.284,62.104-9.373   L255.999,378.246z" fill="none"/><path d="M138.073,373.93l-76.034-37.309c21.315,51.093,62.249,92.024,113.342,113.342L138.073,373.93z" fill="none"/><path d="M373.926,373.929l-37.31,76.035c51.095-21.315,92.03-62.25,113.347-113.347L373.926,373.929z" fill="none"/><path d="M255.999,133.755l62.106-78.439c-19.636-6.089-40.493-9.373-62.104-9.373s-42.471,3.284-62.106,9.374   L255.999,133.755z" fill="none"/><polygon fill="none" points="375.191,266.337 375.191,362.17 449.918,325.503  "/><path d="M373.926,138.073l76.035,37.31c-21.315-51.094-62.251-92.028-113.345-113.344L373.926,138.073z" fill="none"/><polygon fill="none" points="362.168,375.191 266.335,375.191 325.501,449.917  "/><polygon fill="none" points="245.664,375.191 149.831,375.191 186.498,449.917  "/><path d="M138.072,138.073l37.309-76.033C124.289,83.356,83.356,124.289,62.04,175.381L138.072,138.073z" fill="none"/><path d="M411.605,100.396c-41.563-41.563-96.824-64.454-155.604-64.454c-58.779,0-114.042,22.891-155.604,64.454   c-41.563,41.563-64.454,96.826-64.454,155.607c0,58.779,22.89,114.042,64.454,155.604c41.563,41.563,96.825,64.452,155.604,64.452   c58.78,0,114.042-22.89,155.604-64.452c41.563-41.562,64.452-96.824,64.452-155.604   C476.058,197.222,453.169,141.959,411.605,100.396z M456.686,318.106l-78.441-62.104l78.439-62.105   c6.089,19.637,9.373,40.496,9.373,62.108C466.058,277.614,462.774,298.472,456.686,318.106z M365.191,365.191h-97.122   l97.122-97.122V365.191z M146.808,146.811h97.122l-97.122,97.122V146.811L146.808,146.811z M365.191,243.932l-97.121-97.121h97.121   V243.932z M363.118,256.001L256,363.118L148.881,256.001L256,148.882L363.118,256.001z M146.808,268.069l97.123,97.122h-97.123   V268.069z M375.191,149.833l74.727,36.667l-74.727,59.165V149.833L375.191,149.833z M266.335,136.811l59.166-74.726l36.667,74.726   H266.335z M149.831,136.811l36.667-74.726l59.166,74.726H149.831z M136.808,245.667L62.081,186.5l74.728-36.667V245.667z    M136.808,362.171l-74.728-36.667l74.728-59.166V362.171z M245.664,375.191l-59.166,74.727l-36.667-74.727H245.664z    M362.168,375.191l-36.667,74.727l-59.166-74.727H362.168z M375.191,266.337l74.727,59.166l-74.727,36.667V266.337L375.191,266.337   z M449.961,175.382l-76.035-37.31l-37.31-76.034C387.71,83.354,428.645,124.288,449.961,175.382z M318.105,55.315l-62.106,78.439   l-62.104-78.438c19.636-6.09,40.495-9.374,62.106-9.374S298.47,49.226,318.105,55.315z M175.38,62.04l-37.309,76.033L62.04,175.381   C83.356,124.289,124.289,83.356,175.38,62.04z M55.315,193.898l78.437,62.104l-78.438,62.104   c-6.089-19.636-9.373-40.492-9.373-62.103C45.942,234.392,49.226,213.534,55.315,193.898z M62.039,336.621l76.034,37.309   l37.308,76.033C124.288,428.647,83.354,387.714,62.039,336.621z M193.893,456.686l62.105-78.438l62.106,78.439   c-19.636,6.089-40.493,9.373-62.104,9.373S213.53,462.775,193.893,456.686z M336.616,449.964l37.31-76.035l76.037-37.312   C428.646,387.714,387.711,428.648,336.616,449.964z" fill="#010101"/></g><circle cx="473.126" cy="433.476" fill="#20ACC3" r="12"/><circle cx="485.128" cy="146.811" fill="#20ACC3" r="12"/><circle cx="365.191" cy="35.942" fill="#20ACC3" r="12"/><circle cx="146.808" cy="24.695" fill="#20ACC3" r="12"/><circle cx="30.239" cy="118.711" fill="#20ACC3" r="12"/><circle cx="314.252" cy="488.06" fill="#20ACC3" r="12"/><circle cx="30.239" cy="347.281" fill="#20ACC3" r="12"/><polygon fill="#FECD0E" points="420.256,476.328 433.804,455.927 412.824,468.354 392.424,454.811 404.851,475.788 391.304,496.189   412.283,483.763 432.682,497.306 "/><polygon fill="#FECD0E" points="59.19,433.746 72.739,413.345 51.758,425.772 31.358,412.229 43.785,433.206 30.239,453.607   51.217,441.181 71.616,454.724 "/><polygon fill="#FECD0E" points="59.19,46.213 72.739,25.811 51.758,38.238 31.358,24.695 43.785,45.673 30.239,66.073   51.217,53.647 71.616,67.19 "/><polygon fill="#FECD0E" points="468.759,51.211 482.307,30.809 461.327,43.236 440.927,29.693 453.354,50.671 439.807,71.071   460.786,58.645 481.185,72.188 "/></svg>