<?xml version="1.0" ?><!DOCTYPE svg  PUBLIC '-//W3C//DTD SVG 1.1//EN'  'http://www.w3.org/Graphics/SVG/1.1/DTD/svg11.dtd'><svg enable-background="new 0 0 512 512" height="512px" id="Calque_1" version="1.1" viewBox="0 0 512 512" width="512px" xml:space="preserve" xmlns="http://www.w3.org/2000/svg" xmlns:xlink="http://www.w3.org/1999/xlink"><g><polygon fill="#FF50CE" points="239.415,157.977 194.225,139.337 209.326,193.059  "/><path d="M246,52.804c-1.642,1.785-3.377,3.696-5.194,5.729c-12.727,14.229-29.492,34.419-46.607,59.154L246,139.056   V52.804z" fill="#FF50CE"/><polygon fill="#FF50CE" points="191.579,226.101 140.59,234.655 174.246,299.859  "/><path d="M175.482,146.566c-13.562,22.427-25.063,45.129-34.303,67.71l50.933-8.544L175.482,146.566z" fill="#FF50CE"/><polygon fill="#FF50CE" points="378.439,366.218 339.084,342.996 324.661,378.149  "/><polygon fill="#FF50CE" points="320.421,226.101 337.754,299.858 371.41,234.655  "/><polygon fill="#FF50CE" points="317.773,139.337 272.585,157.977 302.674,193.06  "/><polygon fill="#FF50CE" points="133.56,366.218 187.342,378.149 172.917,342.996  "/><path d="M349.615,169.533c-4.129-7.679-8.484-15.342-13.098-22.971l-16.631,59.168l50.936,8.545   C364.724,199.376,357.623,184.424,349.615,169.533z" fill="#FF50CE"/><path d="M266,52.802v86.255l51.806-21.369C298.242,89.415,279.136,67.084,266,52.802z" fill="#FF50CE"/><path d="M246,473.513v-42.106l-72.633,18.089C194.775,463.615,219.605,471.839,246,473.513z" fill="#FF50CE"/><path d="M398.197,342.431c-0.002-0.265-0.006-0.521-0.014-0.773l-0.159-5.154V336.5h0.083   c-0.666-27.022-5.246-55.049-13.646-83.527l-37.024,71.729l50.257,29.653c0.337-3.657,0.506-7.321,0.506-10.956   c0-0.255,0-0.489-0.001-0.723C398.198,342.596,398.198,342.511,398.197,342.431z" fill="#FF50CE"/><path d="M266,473.513c26.396-1.674,51.226-9.898,72.634-24.019L266,431.406V473.513z" fill="#FF50CE"/><path d="M361.24,431.009c13.518-13.653,23.738-29.751,29.949-47.134l-63.087,13.995L361.24,431.009z" fill="#FF50CE"/><polygon fill="#FF50CE" points="323.748,327.682 298.068,218.411 256,169.36 213.931,218.411 188.251,327.681 211.7,384.825    256,407.389 300.302,384.825  "/><path d="M120.811,383.875c6.21,17.383,16.431,33.48,29.947,47.133l33.138-33.138L120.811,383.875z" fill="#FF50CE"/><polygon fill="#FF50CE" points="227.613,415.375 205.79,404.261 183.757,426.297  "/><polygon fill="#FF50CE" points="284.387,415.375 328.246,426.298 306.21,404.261  "/><path d="M127.539,252.974c-8.397,28.479-12.978,56.501-13.645,83.522h0.067h0.021l-0.166,5.164   c-0.016,0.462-0.015,0.929-0.015,1.392l-0.001,0.32c0,3.649,0.17,7.32,0.507,10.981l50.255-29.652L127.539,252.974z" fill="#FF50CE"/></g><g opacity="0.3"><g><polygon points="221.777,178.585 209.286,193.145 194.187,139.425 212.937,147.165   "/><path d="M245.956,71.745c-10.62,12.601-22.83,28.13-35.22,46.029l35.22,14.53v6.84l-51.8-21.37    c17.109-24.729,33.88-44.92,46.6-59.149c1.82-2.04,3.562-3.95,5.2-5.729V71.745L245.956,71.745z"/><polygon points="190.857,229.085 157.126,234.745 179.397,277.875 174.206,299.946 140.546,234.745 191.536,226.185   "/><path d="M158.956,211.375l-17.819,2.989c9.239-22.579,20.739-45.289,34.301-67.71l5.438,19.351L158.956,211.375z"/><polygon points="187.296,378.235 133.516,366.305 172.876,343.084 176.107,350.965 150.096,366.305 185.636,374.186   "/><path d="M245.956,435.625l-56.05,13.959c16.87,11.12,35.85,18.579,56.05,22.069v1.951c-26.39-1.682-51.22-9.9-72.63-24.021    l72.63-18.091V435.625z"/><polygon points="228.237,384.913 264.246,403.254 255.956,407.475 211.656,384.913 188.206,327.766 213.886,218.495     255.956,169.445 264.246,179.115 230.476,218.495 204.796,327.766   "/><path d="M159.406,422.405l-8.69,8.691c-13.52-13.65-23.739-29.75-29.949-47.131l18.109,4.02    C143.777,400.315,150.706,411.924,159.406,422.405z"/><polygon points="216.737,409.946 205.796,420.885 183.716,426.385 205.746,404.346   "/><path d="M130.437,336.584h0.09l-0.17,5.159c-0.021,0.472-0.011,0.931-0.011,1.4l-0.011,0.32c0,0.5,0,0.989,0.021,1.489    l-16.091,9.49c-0.341-3.66-0.511-7.33-0.511-10.979v-0.32c0-0.471,0-0.93,0.021-1.4l0.16-5.159h-0.091    c0.67-27.021,5.25-55.039,13.649-83.52l10.99,21.3C133.636,295.516,130.937,316.334,130.437,336.584z"/></g><g><path d="M158.956,211.375c6.311-15.109,13.641-30.279,21.92-45.37L158.956,211.375z"/></g></g><g opacity="0.3"><g><polygon fill="#FFFFFF" points="290.025,178.585 302.515,193.145 317.615,139.425 298.865,147.165   "/><path d="M265.845,71.745c10.619,12.601,22.829,28.13,35.22,46.029l-35.22,14.53v6.84l51.8-21.37    c-17.109-24.729-33.88-44.92-46.601-59.149c-1.819-2.04-3.561-3.95-5.199-5.729V71.745L265.845,71.745z" fill="#FFFFFF"/><polygon fill="#FFFFFF" points="320.945,229.085 354.676,234.745 332.405,277.875 337.595,299.946 371.256,234.745     320.265,226.185   "/><path d="M330.926,166.005l5.439-19.351c13.561,22.421,25.061,45.131,34.301,67.71l-17.819-2.989L330.926,166.005z" fill="#FFFFFF"/><polygon fill="#FFFFFF" points="324.506,378.235 378.286,366.305 338.926,343.084 335.695,350.965 361.706,366.305     326.166,374.186   "/><path d="M265.845,435.625l56.05,13.959c-16.87,11.12-35.851,18.579-56.05,22.069v1.951    c26.39-1.682,51.22-9.9,72.63-24.021l-72.63-18.091V435.625z" fill="#FFFFFF"/><polygon fill="#FFFFFF" points="283.565,384.913 247.555,403.254 255.845,407.475 300.145,384.913 323.595,327.766     297.916,218.495 255.845,169.445 247.555,179.115 281.326,218.495 307.006,327.766   "/><path d="M352.395,422.405l8.689,8.691c13.521-13.65,23.74-29.75,29.95-47.131l-18.11,4.02    C368.025,400.315,361.095,411.924,352.395,422.405z" fill="#FFFFFF"/><polygon fill="#FFFFFF" points="295.065,409.946 306.006,420.885 328.086,426.385 306.055,404.346   "/><path d="M381.365,336.584h-0.09l0.17,5.159c0.021,0.472,0.011,0.931,0.011,1.4l0.01,0.32    c0,0.5,0,0.989-0.021,1.489l16.091,9.49c0.34-3.66,0.51-7.33,0.51-10.979v-0.32c0-0.471,0-0.93-0.021-1.4l-0.16-5.159h0.091    c-0.67-27.021-5.25-55.039-13.649-83.52l-10.99,21.3C378.166,295.516,380.865,316.334,381.365,336.584z" fill="#FFFFFF"/></g><g><path d="M330.926,166.005c8.28,15.091,15.61,30.261,21.921,45.37L330.926,166.005z" fill="#FFFFFF"/></g></g><g><polygon fill="none" points="304.96,203.406 325.368,130.794 264.292,155.988  "/><polygon fill="none" points="207.04,203.406 247.708,155.988 186.631,130.794  "/><polygon fill="none" points="198.167,219.926 133.003,230.858 176.015,314.187  "/><polygon fill="none" points="195.599,385.102 175.35,335.756 120.1,368.354  "/><polygon fill="none" points="302.657,216.081 256,161.68 209.343,216.081 183.017,328.098 207.778,388.44 256,413 304.224,388.441    328.982,328.098  "/><path d="M378.745,220.676c-12.67-32.87-28.657-62.249-43.963-86.416l-21.216,75.481L378.745,220.676z" fill="none"/><polygon fill="none" points="313.833,219.926 335.985,314.186 378.997,230.858  "/><path d="M385.604,239.861l-44.777,86.748l60.896,35.931c0.966-6.255,1.477-12.643,1.477-19.139   c0-0.631,0.001-1.27-0.019-1.897h0.005C402.949,305.815,396.03,271.481,385.604,239.861z" fill="none"/><polygon fill="none" points="241.807,416.991 204.823,398.156 167.478,435.504  "/><path d="M198.433,209.742l-21.217-75.48c-15.311,24.176-31.296,53.552-43.962,86.415L198.433,209.742z" fill="none"/><polygon fill="none" points="336.65,335.756 316.403,385.102 391.9,368.354  "/><path d="M150.805,438.033l43.07-43.07l-80.459-17.851C119.932,400.429,133.048,421.326,150.805,438.033z" fill="none"/><path d="M318.123,394.963l43.072,43.07c17.757-16.707,30.872-37.604,37.388-60.921L318.123,394.963z" fill="none"/><path d="M251,478.753v-53.744l-89.361,22.255C186.012,466.043,217.068,477.703,251,478.753z" fill="none"/><path d="M108.802,343.199c0,0.065-0.003,0.13-0.003,0.194l0,0c0,0.002,0,0.003,0,0.005   c0,6.496,0.513,12.884,1.479,19.139l60.896-35.931l-44.775-86.748c-10.426,31.622-17.344,65.954-17.582,101.638h0.004   C108.801,342.063,108.802,342.635,108.802,343.199z" fill="none"/><path d="M251,146.529V40.214c-12.829,13.249-38.524,41.477-64.414,79.744L251,146.529z" fill="none"/><path d="M261,425.009v53.744c33.935-1.05,64.987-12.71,89.363-31.489L261,425.009z" fill="none"/><polygon fill="none" points="270.193,416.992 344.522,435.504 307.178,398.156  "/><path d="M261,146.529l64.415-26.569C299.515,81.673,273.824,53.455,261,40.212V146.529z" fill="none"/><path d="M413.2,343.396L413.2,343.396c0-0.007,0-0.014,0-0.021c0-0.725-0.001-1.454-0.021-2.177h-0.007   c-0.274-37.431-7.609-76.291-21.827-115.646c-0.045-0.136-0.096-0.271-0.148-0.403c-0.69-1.902-1.378-3.809-2.101-5.716   c-12.573-33.182-30.03-66.752-51.882-99.806c-0.021-0.034-0.044-0.066-0.063-0.102c-0.298-0.448-0.587-0.898-0.886-1.35   c-19.816-29.788-39.621-53.636-52.746-68.396c-7.439-8.367-13.576-14.772-17.413-18.675c-7.819-7.946-7.819-7.946-10.104-7.946   c-1.268,0-2.487,0.48-3.416,1.348c-0.385,0.36-38.914,36.646-76.847,93.669c-0.296,0.444-0.582,0.89-0.876,1.335   c-0.027,0.042-0.056,0.082-0.082,0.124c-21.847,33.051-39.302,66.618-51.874,99.797c-0.723,1.907-1.41,3.813-2.101,5.716   c-0.057,0.133-0.105,0.269-0.148,0.403c-14.218,39.354-21.553,78.219-21.829,115.648h-0.006c-0.021,0.729-0.022,1.47-0.022,2.197   c0,9.516,1.006,18.816,2.899,27.827c0.002,0.016,0.001,0.031,0.004,0.047c0.011,0.067,0.033,0.13,0.046,0.196   C115.927,438.279,179.697,488.84,256,488.84c76.298,0,140.063-50.556,154.248-117.354c0.017-0.071,0.038-0.139,0.05-0.211   c0.003-0.017,0.002-0.033,0.004-0.051c1.896-9.009,2.898-18.312,2.898-27.823C413.2,343.398,413.2,343.397,413.2,343.396z    M403.2,343.4c0,6.496-0.511,12.884-1.477,19.139l-60.896-35.931l44.777-86.748c10.426,31.621,17.345,65.955,17.582,101.642h-0.005   C403.201,342.131,403.2,342.77,403.2,343.4z M177.218,134.261l21.217,75.48l-65.179,10.934   C145.922,187.813,161.907,158.438,177.218,134.261z M334.782,134.26c15.306,24.167,31.293,53.545,43.963,86.416l-65.179-10.934   L334.782,134.26z M335.985,314.186l-22.152-94.26l65.164,10.932L335.985,314.186z M304.224,388.441L256,413l-48.222-24.562   l-24.761-60.343l26.324-112.017L256,161.68l46.657,54.401l26.325,112.017L304.224,388.441z M304.96,203.406l-40.668-47.417   l61.076-25.192L304.96,203.406z M207.04,203.406l-20.409-72.609l61.077,25.192L207.04,203.406z M198.167,219.926l-22.15,94.261   l-43.014-83.329L198.167,219.926z M175.35,335.756l20.249,49.346L120.1,368.354L175.35,335.756z M204.823,398.156l36.983,18.835   l-74.329,18.513L204.823,398.156z M251,425.009v53.744c-33.932-1.05-64.986-12.71-89.361-31.489L251,425.009z M261,425.009   l89.363,22.255c-24.376,18.779-55.431,30.439-89.363,31.489V425.009z M270.193,416.992l36.984-18.836l37.345,37.348   L270.193,416.992z M336.65,335.756l55.25,32.599l-75.497,16.747L336.65,335.756z M325.415,119.958L261,146.529V40.212   C273.824,53.455,299.515,81.673,325.415,119.958z M251,40.214v106.313l-64.414-26.568C212.474,81.691,238.171,53.463,251,40.214z    M126.396,239.86l44.775,86.748l-60.896,35.931c-0.966-6.255-1.479-12.643-1.479-19.139c0-0.002,0-0.003,0-0.005l0,0   c0-0.064,0.001-0.129,0.001-0.194c0-0.564,0-1.139,0.018-1.703h-0.004C109.052,305.814,115.97,271.482,126.396,239.86z    M113.417,377.114l80.459,17.851l-43.07,43.07C133.048,421.326,119.932,400.429,113.417,377.114z M361.195,438.033l-43.072-43.07   l80.46-17.851C392.067,400.429,378.952,421.326,361.195,438.033z" fill="#010101"/></g><circle cx="435.127" cy="82.476" fill="#FF50CE" r="12"/><circle cx="345.354" cy="52.802" fill="#FF50CE" r="12"/><circle cx="157.85" cy="23.16" fill="#FF50CE" r="12"/><circle cx="56.3" cy="169.36" fill="#FF50CE" r="12"/><circle cx="56.3" cy="314.187" fill="#FF50CE" r="12"/><circle cx="113.418" cy="480.531" fill="#FF50CE" r="12"/><circle cx="469.03" cy="372.432" fill="#FF50CE" r="12"/><polygon fill="#FECD0E" points="464.729,188.96 478.278,168.558 457.299,180.985 436.897,167.442 449.325,188.42 435.778,208.82   456.758,196.394 477.156,209.937 "/><polygon fill="#FECD0E" points="443.479,459.553 457.028,439.151 436.049,451.577 415.647,438.034 428.075,459.012 414.528,479.411   435.508,466.987 455.906,480.53 "/><polygon fill="#FECD0E" points="55.73,438.305 69.279,417.903 48.299,430.329 27.898,416.786 40.326,437.764 26.779,458.163   47.758,445.739 68.157,459.281 "/><polygon fill="#FECD0E" points="85.251,70.744 98.8,50.342 77.819,62.769 57.419,49.226 69.846,70.203 56.3,90.603 77.278,78.177   97.677,91.72 "/></svg>