<?xml version="1.0" ?><!DOCTYPE svg  PUBLIC '-//W3C//DTD SVG 1.1//EN'  'http://www.w3.org/Graphics/SVG/1.1/DTD/svg11.dtd'><svg enable-background="new 0 0 512 512" height="512px" id="Calque_1" version="1.1" viewBox="0 0 512 512" width="512px" xml:space="preserve" xmlns="http://www.w3.org/2000/svg" xmlns:xlink="http://www.w3.org/1999/xlink"><g><polygon fill="#EA6226" points="198.156,119.618 215.867,110.206 152.64,110.206 188.114,124.953  "/><polygon fill="#EA6226" points="96.426,121.578 55.333,166.134 104.914,166.134  "/><polygon fill="#EA6226" points="55.792,186.134 79.49,211.092 97.47,186.134  "/><polygon fill="#EA6226" points="155.309,166.134 224.034,166.134 188.763,147.391  "/><polygon fill="#EA6226" points="256,160.472 302.052,136 256,111.53 209.948,136  "/><polygon fill="#EA6226" points="396.169,116.563 346.205,137.334 387.775,160.623  "/><polygon fill="#EA6226" points="287.967,166.134 356.691,166.134 323.236,147.392  "/><polygon fill="#EA6226" points="93.505,225.853 131.203,265.556 112.896,198.938  "/><polygon fill="#EA6226" points="359.359,110.206 296.134,110.206 323.885,124.953  "/><polygon fill="#EA6226" points="165.794,137.334 115.831,116.563 124.225,160.623  "/><polygon fill="#EA6226" points="407.086,166.134 456.668,166.134 415.574,121.578  "/><polygon fill="#EA6226" points="380.798,265.555 418.496,225.853 399.104,198.938  "/><polygon fill="#EA6226" points="244.429,186.134 135.818,186.134 225.189,318.501  "/><polygon fill="#EA6226" points="432.511,211.092 456.21,186.134 414.53,186.134  "/><path d="M220.941,347.95l-78.169-115.775l17.622,64.12l67.027,70.595l-5.796-14.606   C221.079,350.91,220.846,349.428,220.941,347.95z" fill="#EA6226"/><polygon fill="#EA6226" points="286.812,318.502 376.182,186.134 267.57,186.134  "/><polygon fill="#EA6226" points="241.2,347.39 256,384.683 270.799,347.39 256,245.575  "/><path d="M290.376,352.282l-5.796,14.605l67.027-70.594l17.622-64.121L291.06,347.948   C291.155,349.421,290.923,350.906,290.376,352.282z" fill="#EA6226"/></g><g opacity="0.3"><polygon points="193.151,122.246 188.071,124.946 152.601,110.206 164.172,110.206  "/><polygon points="98.372,131.976 66.861,166.136 55.292,166.136 96.391,121.576  "/><polygon points="84.441,204.156 79.451,211.086 55.752,186.136 67.321,186.136  "/><polygon points="194.66,150.546 166.842,166.136 155.271,166.136 188.721,147.386  "/><polygon points="131.161,265.556 93.471,225.846 112.861,198.936 116.052,210.566 105.042,225.846 126.451,248.396  "/><polygon points="134.641,154.756 124.181,160.615 115.792,116.556 128.361,121.786  "/><polygon points="227.201,304.396 225.151,318.494 135.781,186.136 147.351,186.136  "/><path d="M227.381,366.886l-67.028-70.59l-17.621-64.12l19.509,28.89l9.682,35.23l48.818,51.409l0.16,0.239   c-0.09,1.479,0.141,2.96,0.69,4.33L227.381,366.886z"/></g><g opacity="0.3"><polygon fill="#FFFFFF" points="318.726,122.222 323.806,124.922 359.276,110.182 347.706,110.182  "/><polygon fill="#FFFFFF" points="413.506,131.952 445.016,166.112 456.587,166.112 415.486,121.552  "/><polygon fill="#FFFFFF" points="427.436,204.132 432.427,211.062 456.127,186.112 444.556,186.112  "/><polygon fill="#FFFFFF" points="317.217,150.522 345.036,166.112 356.606,166.112 323.156,147.362  "/><polygon fill="#FFFFFF" points="380.717,265.531 418.406,225.821 399.016,198.912 395.826,210.542 406.836,225.821    385.427,248.372  "/><polygon fill="#FFFFFF" points="377.236,154.732 387.696,160.592 396.086,116.531 383.516,121.762  "/><polygon fill="#FFFFFF" points="284.677,304.37 286.726,318.471 376.096,186.112 364.526,186.112  "/><path d="M284.496,366.862l67.03-70.59l17.62-64.121l-19.51,28.891l-9.682,35.229l-48.818,51.41l-0.16,0.24   c0.09,1.479-0.142,2.959-0.69,4.33L284.496,366.862z" fill="#FFFFFF"/></g><g><polygon fill="none" points="256,105.866 199.292,135.999 256,166.133 312.708,135.999  "/><polygon fill="none" points="120.612,168.378 177.216,136.666 109.183,108.383  "/><polygon fill="none" points="275.939,347.99 256,210.814 236.06,347.99 256,398.238  "/><polygon fill="none" points="188.7,141.695 136.155,171.133 244.098,171.133  "/><polygon fill="none" points="267.902,171.133 375.846,171.133 323.301,141.695  "/><polygon fill="none" points="334.784,136.666 391.388,168.378 402.816,108.383  "/><polygon fill="none" points="126.409,181.133 228.278,332.01 250.209,181.133  "/><polygon fill="none" points="110.958,171.133 99.48,110.891 43.92,171.133  "/><polygon fill="none" points="261.791,181.133 283.723,332.011 385.592,181.133  "/><polygon fill="none" points="114.948,187.535 87.026,226.29 141.308,283.459  "/><polygon fill="none" points="397.052,187.535 370.691,283.459 424.974,226.29  "/><polygon fill="none" points="404.765,181.133 431.981,218.91 467.851,181.133  "/><polygon fill="none" points="401.043,171.133 468.08,171.133 412.52,110.891  "/><path d="M382.115,204.152l-96.256,142.563l0.169,1.161c0.126,0.864,0.021,1.751-0.301,2.563L270.385,389.1   l85.712-90.271L382.115,204.152z" fill="none"/><polygon fill="none" points="323.625,130.476 384.414,105.204 276.066,105.204  "/><path d="M226.272,350.439c-0.323-0.813-0.426-1.698-0.301-2.563l0.168-1.16l-96.257-142.563l26.02,94.678   l85.711,90.271L226.272,350.439z" fill="none"/><polygon fill="none" points="107.235,181.133 44.149,181.133 80.019,218.91  "/><polygon fill="none" points="188.375,130.476 235.935,105.204 127.586,105.204  "/><path d="M483.171,172.743l-70.028-75.931c-0.003-0.003-0.008-0.006-0.013-0.009c-0.156-0.17-0.326-0.332-0.512-0.48   c-0.056-0.046-0.116-0.079-0.173-0.121c-0.063-0.046-0.122-0.09-0.188-0.133c-0.247-0.169-0.507-0.319-0.776-0.439   c-0.005-0.002-0.009-0.005-0.015-0.007c-0.278-0.123-0.57-0.209-0.865-0.278c-0.07-0.016-0.141-0.031-0.209-0.044   c-0.301-0.057-0.604-0.093-0.906-0.094c-0.008,0-0.015-0.002-0.021-0.002h-306.93c-0.006,0-0.012,0.002-0.018,0.002   c-0.31,0.001-0.613,0.038-0.916,0.095c-0.066,0.013-0.13,0.027-0.196,0.042c-0.591,0.137-1.156,0.382-1.67,0.729   c-0.062,0.041-0.119,0.081-0.178,0.127c-0.06,0.043-0.12,0.077-0.178,0.125c-0.185,0.148-0.354,0.312-0.514,0.481   c-0.002,0.002-0.005,0.004-0.008,0.007L28.83,172.744c-1.785,1.935-1.763,4.923,0.049,6.833l222.713,234.557   c0.86,1.62,2.542,2.661,4.406,2.661s3.547-1.041,4.406-2.661l222.713-234.557C484.932,177.666,484.953,174.678,483.171,172.743z    M99.48,110.891l11.477,60.242H43.92L99.48,110.891z M261.791,181.133h123.801L283.723,332.011L261.791,181.133z M228.278,332.01   L126.409,181.133h123.8L228.278,332.01z M188.7,141.695l55.398,29.438H136.155L188.7,141.695z M120.612,168.378l-11.43-59.995   l68.031,28.283L120.612,168.378z M199.292,135.999L256,105.866l56.708,30.133L256,166.133L199.292,135.999z M256,210.814   l19.939,137.178L256,398.238l-19.938-50.246L256,210.814z M267.902,171.133l55.396-29.438l52.547,29.438H267.902z M334.784,136.666   l68.032-28.283l-11.429,59.995L334.784,136.666z M323.625,130.476l-47.559-25.271h108.348L323.625,130.476z M188.375,130.476   l-60.789-25.271h108.35L188.375,130.476z M107.235,181.133L80.018,218.91l-35.869-37.777H107.235z M114.948,187.535l26.36,95.924   L87.026,226.29L114.948,187.535z M129.885,204.152l96.257,142.563l-0.168,1.16c-0.125,0.864-0.022,1.751,0.301,2.563l15.342,38.661   l-85.711-90.271L129.885,204.152z M285.728,350.439c0.321-0.813,0.427-1.698,0.301-2.563l-0.169-1.161l96.256-142.563   l-26.019,94.678l-85.714,90.271L285.728,350.439z M397.052,187.535l27.922,38.755l-54.282,57.169L397.052,187.535z    M404.765,181.133h63.086l-35.869,37.777L404.765,181.133z M401.043,171.133l11.479-60.242l55.561,60.242H401.043z" fill="#010101"/></g><circle cx="55.792" cy="283.459" fill="#EA6226" r="12"/><circle cx="39.506" cy="446.459" fill="#EA6226" r="12"/><circle cx="167.309" cy="446.459" fill="#EA6226" r="12"/><circle cx="380.717" cy="449.211" fill="#EA6226" r="12"/><circle cx="468.08" cy="277.799" fill="#EA6226" r="12"/><circle cx="456.668" cy="75.799" fill="#EA6226" r="12"/><circle cx="125.217" cy="51.799" fill="#EA6226" r="12"/><circle cx="241.613" cy="51.799" fill="#EA6226" r="12"/><polygon fill="#FECD0E" points="112.615,377.26 126.164,356.859 105.184,369.284 84.783,355.741 97.211,376.72 83.664,397.119   104.643,384.695 125.042,398.238 "/><polygon fill="#FECD0E" points="283.767,470.729 297.316,450.326 276.336,462.754 255.936,449.211 268.363,470.189 254.817,490.589   275.795,478.162 296.195,491.705 "/><polygon fill="#FECD0E" points="442.26,389.446 456.008,369.177 434.906,381.399 414.639,367.656 426.861,388.755 413.117,409.023   434.216,396.802 454.482,410.543 "/><polygon fill="#FECD0E" points="353.902,40.144 367.649,19.876 346.549,32.097 326.282,18.356 338.504,39.454 324.76,59.721   345.857,47.501 366.125,61.242 "/><polygon fill="#FECD0E" points="63.49,61.587 77.237,41.319 56.136,53.54 35.869,39.799 48.091,60.897 34.347,81.164 55.445,68.944   75.712,82.685 "/></svg>